<mxfile host="app.diagrams.net" modified="2021-09-12T19:22:37.541Z" agent="5.0 (X11; Linux x86_64) AppleWebKit/537.36 (KHTML, like Gecko) Chrome/92.0.4515.159 Safari/537.36" etag="6OjlFqIzOh2vQJ_BCSJl" version="14.8.0" type="github">
  <diagram id="A4mDuZ2J48MEt-R97qlC" name="Page-1">
    <mxGraphModel dx="1608" dy="774" grid="1" gridSize="10" guides="1" tooltips="1" connect="1" arrows="1" fold="1" page="1" pageScale="1" pageWidth="1100" pageHeight="850" math="0" shadow="0">
      <root>
        <mxCell id="0" />
        <mxCell id="1" parent="0" />
        <mxCell id="h9Yj2MIiB5W3ZqaMnut1-2" value="client" style="ellipse;shape=cloud;whiteSpace=wrap;html=1;align=center;" vertex="1" parent="1">
          <mxGeometry x="500" y="30" width="100" height="60" as="geometry" />
        </mxCell>
        <mxCell id="h9Yj2MIiB5W3ZqaMnut1-12" value="Web Server" style="shape=ext;double=1;rounded=0;whiteSpace=wrap;html=1;" vertex="1" parent="1">
          <mxGeometry x="500" y="130" width="100" height="60" as="geometry" />
        </mxCell>
        <mxCell id="h9Yj2MIiB5W3ZqaMnut1-13" value="Post Tweet API" style="shape=ext;double=1;rounded=1;whiteSpace=wrap;html=1;" vertex="1" parent="1">
          <mxGeometry x="490" y="240" width="120" height="50" as="geometry" />
        </mxCell>
        <mxCell id="h9Yj2MIiB5W3ZqaMnut1-14" value="" style="endArrow=classic;html=1;exitX=0.55;exitY=0.95;exitDx=0;exitDy=0;exitPerimeter=0;entryX=0.5;entryY=0;entryDx=0;entryDy=0;" edge="1" parent="1" source="h9Yj2MIiB5W3ZqaMnut1-2" target="h9Yj2MIiB5W3ZqaMnut1-12">
          <mxGeometry width="50" height="50" relative="1" as="geometry">
            <mxPoint x="520" y="420" as="sourcePoint" />
            <mxPoint x="570" y="370" as="targetPoint" />
          </mxGeometry>
        </mxCell>
        <mxCell id="h9Yj2MIiB5W3ZqaMnut1-15" value="" style="endArrow=classic;html=1;exitX=0.5;exitY=1;exitDx=0;exitDy=0;entryX=0.5;entryY=0;entryDx=0;entryDy=0;" edge="1" parent="1" source="h9Yj2MIiB5W3ZqaMnut1-12" target="h9Yj2MIiB5W3ZqaMnut1-13">
          <mxGeometry width="50" height="50" relative="1" as="geometry">
            <mxPoint x="520" y="420" as="sourcePoint" />
            <mxPoint x="570" y="370" as="targetPoint" />
          </mxGeometry>
        </mxCell>
        <mxCell id="h9Yj2MIiB5W3ZqaMnut1-16" value="Data store" style="shape=datastore;whiteSpace=wrap;html=1;" vertex="1" parent="1">
          <mxGeometry x="490" y="395" width="60" height="60" as="geometry" />
        </mxCell>
        <mxCell id="h9Yj2MIiB5W3ZqaMnut1-17" value="" style="endArrow=classic;html=1;exitX=0.5;exitY=1;exitDx=0;exitDy=0;entryX=0.5;entryY=0;entryDx=0;entryDy=0;" edge="1" parent="1" source="h9Yj2MIiB5W3ZqaMnut1-13" target="h9Yj2MIiB5W3ZqaMnut1-16">
          <mxGeometry width="50" height="50" relative="1" as="geometry">
            <mxPoint x="520" y="420" as="sourcePoint" />
            <mxPoint x="570" y="370" as="targetPoint" />
          </mxGeometry>
        </mxCell>
        <mxCell id="h9Yj2MIiB5W3ZqaMnut1-18" value="Cache" style="ellipse;whiteSpace=wrap;html=1;" vertex="1" parent="1">
          <mxGeometry x="520" y="510" width="90" height="55" as="geometry" />
        </mxCell>
        <mxCell id="h9Yj2MIiB5W3ZqaMnut1-20" value="Message Queue" style="shape=parallelogram;perimeter=parallelogramPerimeter;whiteSpace=wrap;html=1;fixedSize=1;" vertex="1" parent="1">
          <mxGeometry x="710" y="290" width="120" height="60" as="geometry" />
        </mxCell>
        <mxCell id="h9Yj2MIiB5W3ZqaMnut1-21" value="" style="endArrow=classic;html=1;entryX=0;entryY=0.25;entryDx=0;entryDy=0;exitX=1;exitY=0.75;exitDx=0;exitDy=0;" edge="1" parent="1" source="h9Yj2MIiB5W3ZqaMnut1-13" target="h9Yj2MIiB5W3ZqaMnut1-20">
          <mxGeometry width="50" height="50" relative="1" as="geometry">
            <mxPoint x="520" y="420" as="sourcePoint" />
            <mxPoint x="570" y="370" as="targetPoint" />
          </mxGeometry>
        </mxCell>
        <mxCell id="h9Yj2MIiB5W3ZqaMnut1-22" value="Timeline service" style="rounded=1;whiteSpace=wrap;html=1;" vertex="1" parent="1">
          <mxGeometry x="880" y="360" width="120" height="60" as="geometry" />
        </mxCell>
        <mxCell id="h9Yj2MIiB5W3ZqaMnut1-23" value="" style="endArrow=classic;html=1;entryX=0;entryY=0.5;entryDx=0;entryDy=0;exitX=1;exitY=0.5;exitDx=0;exitDy=0;" edge="1" parent="1" source="h9Yj2MIiB5W3ZqaMnut1-20" target="h9Yj2MIiB5W3ZqaMnut1-22">
          <mxGeometry width="50" height="50" relative="1" as="geometry">
            <mxPoint x="520" y="420" as="sourcePoint" />
            <mxPoint x="570" y="370" as="targetPoint" />
          </mxGeometry>
        </mxCell>
        <mxCell id="h9Yj2MIiB5W3ZqaMnut1-24" value="" style="endArrow=classic;html=1;entryX=1;entryY=0.5;entryDx=0;entryDy=0;exitX=0;exitY=1;exitDx=0;exitDy=0;" edge="1" parent="1" source="h9Yj2MIiB5W3ZqaMnut1-22" target="h9Yj2MIiB5W3ZqaMnut1-18">
          <mxGeometry width="50" height="50" relative="1" as="geometry">
            <mxPoint x="520" y="420" as="sourcePoint" />
            <mxPoint x="570" y="370" as="targetPoint" />
          </mxGeometry>
        </mxCell>
        <mxCell id="h9Yj2MIiB5W3ZqaMnut1-25" value="Read tweet API" style="rounded=1;whiteSpace=wrap;html=1;" vertex="1" parent="1">
          <mxGeometry x="240" y="290" width="120" height="60" as="geometry" />
        </mxCell>
        <mxCell id="h9Yj2MIiB5W3ZqaMnut1-26" value="" style="endArrow=classic;html=1;entryX=0.5;entryY=0;entryDx=0;entryDy=0;exitX=0;exitY=0.5;exitDx=0;exitDy=0;" edge="1" parent="1" source="h9Yj2MIiB5W3ZqaMnut1-12" target="h9Yj2MIiB5W3ZqaMnut1-25">
          <mxGeometry width="50" height="50" relative="1" as="geometry">
            <mxPoint x="520" y="420" as="sourcePoint" />
            <mxPoint x="570" y="370" as="targetPoint" />
          </mxGeometry>
        </mxCell>
        <mxCell id="h9Yj2MIiB5W3ZqaMnut1-27" value="" style="endArrow=classic;html=1;exitX=0.5;exitY=1;exitDx=0;exitDy=0;" edge="1" parent="1" source="h9Yj2MIiB5W3ZqaMnut1-25">
          <mxGeometry width="50" height="50" relative="1" as="geometry">
            <mxPoint x="520" y="420" as="sourcePoint" />
            <mxPoint x="520" y="540" as="targetPoint" />
          </mxGeometry>
        </mxCell>
        <mxCell id="h9Yj2MIiB5W3ZqaMnut1-28" value="Media store" style="shape=cylinder3;whiteSpace=wrap;html=1;boundedLbl=1;backgroundOutline=1;size=15;" vertex="1" parent="1">
          <mxGeometry x="610" y="385" width="50" height="65" as="geometry" />
        </mxCell>
        <mxCell id="h9Yj2MIiB5W3ZqaMnut1-29" value="" style="endArrow=classic;html=1;entryX=0.28;entryY=0.015;entryDx=0;entryDy=0;entryPerimeter=0;exitX=0.75;exitY=1;exitDx=0;exitDy=0;" edge="1" parent="1" source="h9Yj2MIiB5W3ZqaMnut1-13" target="h9Yj2MIiB5W3ZqaMnut1-28">
          <mxGeometry width="50" height="50" relative="1" as="geometry">
            <mxPoint x="520" y="410" as="sourcePoint" />
            <mxPoint x="570" y="360" as="targetPoint" />
          </mxGeometry>
        </mxCell>
        <mxCell id="h9Yj2MIiB5W3ZqaMnut1-30" value="Search service" style="rounded=1;whiteSpace=wrap;html=1;" vertex="1" parent="1">
          <mxGeometry x="880" y="260" width="120" height="60" as="geometry" />
        </mxCell>
        <mxCell id="h9Yj2MIiB5W3ZqaMnut1-32" value="" style="endArrow=classic;html=1;entryX=-0.017;entryY=0.4;entryDx=0;entryDy=0;entryPerimeter=0;" edge="1" parent="1" target="h9Yj2MIiB5W3ZqaMnut1-30">
          <mxGeometry width="50" height="50" relative="1" as="geometry">
            <mxPoint x="830" y="300" as="sourcePoint" />
            <mxPoint x="880" y="250" as="targetPoint" />
          </mxGeometry>
        </mxCell>
        <mxCell id="h9Yj2MIiB5W3ZqaMnut1-33" value="" style="endArrow=classic;html=1;entryX=0.05;entryY=0.933;entryDx=0;entryDy=0;entryPerimeter=0;exitX=1;exitY=0.75;exitDx=0;exitDy=0;" edge="1" parent="1" source="h9Yj2MIiB5W3ZqaMnut1-25" target="h9Yj2MIiB5W3ZqaMnut1-16">
          <mxGeometry width="50" height="50" relative="1" as="geometry">
            <mxPoint x="520" y="410" as="sourcePoint" />
            <mxPoint x="570" y="360" as="targetPoint" />
          </mxGeometry>
        </mxCell>
        <mxCell id="h9Yj2MIiB5W3ZqaMnut1-35" value="Customer" style="swimlane;fontStyle=1;align=center;verticalAlign=top;childLayout=stackLayout;horizontal=1;startSize=26;horizontalStack=0;resizeParent=1;resizeParentMax=0;resizeLast=0;collapsible=1;marginBottom=0;" vertex="1" parent="1">
          <mxGeometry x="30" y="1090" width="160" height="134" as="geometry" />
        </mxCell>
        <mxCell id="h9Yj2MIiB5W3ZqaMnut1-36" value="+ name: string&#xa;+ phoneNumber: string&#xa;+ email: string" style="text;strokeColor=none;fillColor=none;align=left;verticalAlign=top;spacingLeft=4;spacingRight=4;overflow=hidden;rotatable=0;points=[[0,0.5],[1,0.5]];portConstraint=eastwest;" vertex="1" parent="h9Yj2MIiB5W3ZqaMnut1-35">
          <mxGeometry y="26" width="160" height="74" as="geometry" />
        </mxCell>
        <mxCell id="h9Yj2MIiB5W3ZqaMnut1-37" value="" style="line;strokeWidth=1;fillColor=none;align=left;verticalAlign=middle;spacingTop=-1;spacingLeft=3;spacingRight=3;rotatable=0;labelPosition=right;points=[];portConstraint=eastwest;" vertex="1" parent="h9Yj2MIiB5W3ZqaMnut1-35">
          <mxGeometry y="100" width="160" height="8" as="geometry" />
        </mxCell>
        <mxCell id="h9Yj2MIiB5W3ZqaMnut1-38" value="+ method(type): type" style="text;strokeColor=none;fillColor=none;align=left;verticalAlign=top;spacingLeft=4;spacingRight=4;overflow=hidden;rotatable=0;points=[[0,0.5],[1,0.5]];portConstraint=eastwest;" vertex="1" parent="h9Yj2MIiB5W3ZqaMnut1-35">
          <mxGeometry y="108" width="160" height="26" as="geometry" />
        </mxCell>
        <mxCell id="h9Yj2MIiB5W3ZqaMnut1-43" value="Table" style="swimlane;fontStyle=1;align=center;verticalAlign=top;childLayout=stackLayout;horizontal=1;startSize=26;horizontalStack=0;resizeParent=1;resizeParentMax=0;resizeLast=0;collapsible=1;marginBottom=0;" vertex="1" parent="1">
          <mxGeometry x="240" y="1090" width="160" height="124" as="geometry" />
        </mxCell>
        <mxCell id="h9Yj2MIiB5W3ZqaMnut1-44" value="+ Id: int&#xa;+ maxCapacity: int" style="text;strokeColor=none;fillColor=none;align=left;verticalAlign=top;spacingLeft=4;spacingRight=4;overflow=hidden;rotatable=0;points=[[0,0.5],[1,0.5]];portConstraint=eastwest;" vertex="1" parent="h9Yj2MIiB5W3ZqaMnut1-43">
          <mxGeometry y="26" width="160" height="64" as="geometry" />
        </mxCell>
        <mxCell id="h9Yj2MIiB5W3ZqaMnut1-45" value="" style="line;strokeWidth=1;fillColor=none;align=left;verticalAlign=middle;spacingTop=-1;spacingLeft=3;spacingRight=3;rotatable=0;labelPosition=right;points=[];portConstraint=eastwest;" vertex="1" parent="h9Yj2MIiB5W3ZqaMnut1-43">
          <mxGeometry y="90" width="160" height="8" as="geometry" />
        </mxCell>
        <mxCell id="h9Yj2MIiB5W3ZqaMnut1-46" value="+ method(type): type" style="text;strokeColor=none;fillColor=none;align=left;verticalAlign=top;spacingLeft=4;spacingRight=4;overflow=hidden;rotatable=0;points=[[0,0.5],[1,0.5]];portConstraint=eastwest;" vertex="1" parent="h9Yj2MIiB5W3ZqaMnut1-43">
          <mxGeometry y="98" width="160" height="26" as="geometry" />
        </mxCell>
        <mxCell id="h9Yj2MIiB5W3ZqaMnut1-47" value="Booking" style="swimlane;fontStyle=1;align=center;verticalAlign=top;childLayout=stackLayout;horizontal=1;startSize=26;horizontalStack=0;resizeParent=1;resizeParentMax=0;resizeLast=0;collapsible=1;marginBottom=0;" vertex="1" parent="1">
          <mxGeometry x="450" y="1090" width="160" height="134" as="geometry" />
        </mxCell>
        <mxCell id="h9Yj2MIiB5W3ZqaMnut1-48" value="+ customer: Customer&#xa;+ tables: List&lt;&gt;&#xa;+ reservedTime&#xa;+ bookingTime" style="text;strokeColor=none;fillColor=none;align=left;verticalAlign=top;spacingLeft=4;spacingRight=4;overflow=hidden;rotatable=0;points=[[0,0.5],[1,0.5]];portConstraint=eastwest;" vertex="1" parent="h9Yj2MIiB5W3ZqaMnut1-47">
          <mxGeometry y="26" width="160" height="74" as="geometry" />
        </mxCell>
        <mxCell id="h9Yj2MIiB5W3ZqaMnut1-49" value="" style="line;strokeWidth=1;fillColor=none;align=left;verticalAlign=middle;spacingTop=-1;spacingLeft=3;spacingRight=3;rotatable=0;labelPosition=right;points=[];portConstraint=eastwest;" vertex="1" parent="h9Yj2MIiB5W3ZqaMnut1-47">
          <mxGeometry y="100" width="160" height="8" as="geometry" />
        </mxCell>
        <mxCell id="h9Yj2MIiB5W3ZqaMnut1-50" value="+ method(type): type" style="text;strokeColor=none;fillColor=none;align=left;verticalAlign=top;spacingLeft=4;spacingRight=4;overflow=hidden;rotatable=0;points=[[0,0.5],[1,0.5]];portConstraint=eastwest;" vertex="1" parent="h9Yj2MIiB5W3ZqaMnut1-47">
          <mxGeometry y="108" width="160" height="26" as="geometry" />
        </mxCell>
        <mxCell id="h9Yj2MIiB5W3ZqaMnut1-51" value="makeReservation(customerId, tableId)" style="text;html=1;strokeColor=none;fillColor=none;align=center;verticalAlign=middle;whiteSpace=wrap;rounded=0;" vertex="1" parent="1">
          <mxGeometry x="170" y="1310" width="250" height="10" as="geometry" />
        </mxCell>
        <mxCell id="h9Yj2MIiB5W3ZqaMnut1-52" value="cancelReservation(customerId, tableId)" style="text;html=1;strokeColor=none;fillColor=none;align=center;verticalAlign=middle;whiteSpace=wrap;rounded=0;" vertex="1" parent="1">
          <mxGeometry x="190" y="1330" width="220" height="20" as="geometry" />
        </mxCell>
        <mxCell id="h9Yj2MIiB5W3ZqaMnut1-53" value="client" style="ellipse;shape=cloud;whiteSpace=wrap;html=1;" vertex="1" parent="1">
          <mxGeometry x="150" y="1495" width="90" height="50" as="geometry" />
        </mxCell>
        <mxCell id="h9Yj2MIiB5W3ZqaMnut1-54" value="BookingManagement" style="rounded=0;whiteSpace=wrap;html=1;" vertex="1" parent="1">
          <mxGeometry x="290" y="1490" width="120" height="60" as="geometry" />
        </mxCell>
        <mxCell id="h9Yj2MIiB5W3ZqaMnut1-55" value="makeReservation" style="rounded=1;whiteSpace=wrap;html=1;" vertex="1" parent="1">
          <mxGeometry x="490" y="1400" width="120" height="60" as="geometry" />
        </mxCell>
        <mxCell id="h9Yj2MIiB5W3ZqaMnut1-56" value="Data store" style="shape=cylinder3;whiteSpace=wrap;html=1;boundedLbl=1;backgroundOutline=1;size=15;" vertex="1" parent="1">
          <mxGeometry x="730" y="1490" width="60" height="80" as="geometry" />
        </mxCell>
        <mxCell id="h9Yj2MIiB5W3ZqaMnut1-58" value="cancelReservation" style="rounded=1;whiteSpace=wrap;html=1;" vertex="1" parent="1">
          <mxGeometry x="490" y="1490" width="120" height="60" as="geometry" />
        </mxCell>
        <mxCell id="h9Yj2MIiB5W3ZqaMnut1-59" value="searchTable" style="rounded=1;whiteSpace=wrap;html=1;" vertex="1" parent="1">
          <mxGeometry x="490" y="1590" width="120" height="60" as="geometry" />
        </mxCell>
        <mxCell id="h9Yj2MIiB5W3ZqaMnut1-60" value="searchTable(capacity, timeslot)" style="text;html=1;strokeColor=none;fillColor=none;align=center;verticalAlign=middle;whiteSpace=wrap;rounded=0;" vertex="1" parent="1">
          <mxGeometry x="183" y="1360" width="200" height="20" as="geometry" />
        </mxCell>
        <mxCell id="h9Yj2MIiB5W3ZqaMnut1-61" value="" style="endArrow=classic;html=1;exitX=0.875;exitY=0.5;exitDx=0;exitDy=0;exitPerimeter=0;entryX=0;entryY=0.5;entryDx=0;entryDy=0;" edge="1" parent="1" source="h9Yj2MIiB5W3ZqaMnut1-53" target="h9Yj2MIiB5W3ZqaMnut1-54">
          <mxGeometry width="50" height="50" relative="1" as="geometry">
            <mxPoint x="520" y="1500" as="sourcePoint" />
            <mxPoint x="570" y="1450" as="targetPoint" />
          </mxGeometry>
        </mxCell>
        <mxCell id="h9Yj2MIiB5W3ZqaMnut1-62" value="FoodItem" style="swimlane;fontStyle=1;align=center;verticalAlign=top;childLayout=stackLayout;horizontal=1;startSize=26;horizontalStack=0;resizeParent=1;resizeParentMax=0;resizeLast=0;collapsible=1;marginBottom=0;" vertex="1" parent="1">
          <mxGeometry x="650" y="1090" width="160" height="134" as="geometry" />
        </mxCell>
        <mxCell id="h9Yj2MIiB5W3ZqaMnut1-63" value="+ foodId: int&#xa;+ description; string&#xa;+ pictureUrl; string&#xa;+ price: double" style="text;strokeColor=none;fillColor=none;align=left;verticalAlign=top;spacingLeft=4;spacingRight=4;overflow=hidden;rotatable=0;points=[[0,0.5],[1,0.5]];portConstraint=eastwest;" vertex="1" parent="h9Yj2MIiB5W3ZqaMnut1-62">
          <mxGeometry y="26" width="160" height="74" as="geometry" />
        </mxCell>
        <mxCell id="h9Yj2MIiB5W3ZqaMnut1-64" value="" style="line;strokeWidth=1;fillColor=none;align=left;verticalAlign=middle;spacingTop=-1;spacingLeft=3;spacingRight=3;rotatable=0;labelPosition=right;points=[];portConstraint=eastwest;" vertex="1" parent="h9Yj2MIiB5W3ZqaMnut1-62">
          <mxGeometry y="100" width="160" height="8" as="geometry" />
        </mxCell>
        <mxCell id="h9Yj2MIiB5W3ZqaMnut1-65" value="+ method(type): type" style="text;strokeColor=none;fillColor=none;align=left;verticalAlign=top;spacingLeft=4;spacingRight=4;overflow=hidden;rotatable=0;points=[[0,0.5],[1,0.5]];portConstraint=eastwest;" vertex="1" parent="h9Yj2MIiB5W3ZqaMnut1-62">
          <mxGeometry y="108" width="160" height="26" as="geometry" />
        </mxCell>
        <mxCell id="h9Yj2MIiB5W3ZqaMnut1-66" value="Order" style="swimlane;fontStyle=1;align=center;verticalAlign=top;childLayout=stackLayout;horizontal=1;startSize=26;horizontalStack=0;resizeParent=1;resizeParentMax=0;resizeLast=0;collapsible=1;marginBottom=0;" vertex="1" parent="1">
          <mxGeometry x="860" y="1090" width="160" height="134" as="geometry" />
        </mxCell>
        <mxCell id="h9Yj2MIiB5W3ZqaMnut1-67" value="+ orderId: int&#xa;+ List&lt;FoodItem&gt;: list&#xa;+ discount: double&#xa;+ totalPrice" style="text;strokeColor=none;fillColor=none;align=left;verticalAlign=top;spacingLeft=4;spacingRight=4;overflow=hidden;rotatable=0;points=[[0,0.5],[1,0.5]];portConstraint=eastwest;" vertex="1" parent="h9Yj2MIiB5W3ZqaMnut1-66">
          <mxGeometry y="26" width="160" height="74" as="geometry" />
        </mxCell>
        <mxCell id="h9Yj2MIiB5W3ZqaMnut1-68" value="" style="line;strokeWidth=1;fillColor=none;align=left;verticalAlign=middle;spacingTop=-1;spacingLeft=3;spacingRight=3;rotatable=0;labelPosition=right;points=[];portConstraint=eastwest;" vertex="1" parent="h9Yj2MIiB5W3ZqaMnut1-66">
          <mxGeometry y="100" width="160" height="8" as="geometry" />
        </mxCell>
        <mxCell id="h9Yj2MIiB5W3ZqaMnut1-69" value="+ method(type): type" style="text;strokeColor=none;fillColor=none;align=left;verticalAlign=top;spacingLeft=4;spacingRight=4;overflow=hidden;rotatable=0;points=[[0,0.5],[1,0.5]];portConstraint=eastwest;" vertex="1" parent="h9Yj2MIiB5W3ZqaMnut1-66">
          <mxGeometry y="108" width="160" height="26" as="geometry" />
        </mxCell>
        <mxCell id="h9Yj2MIiB5W3ZqaMnut1-70" value="Table" style="swimlane;fontStyle=1;align=center;verticalAlign=top;childLayout=stackLayout;horizontal=1;startSize=26;horizontalStack=0;resizeParent=1;resizeParentMax=0;resizeLast=0;collapsible=1;marginBottom=0;" vertex="1" parent="1">
          <mxGeometry x="60" y="1970" width="160" height="104" as="geometry" />
        </mxCell>
        <mxCell id="h9Yj2MIiB5W3ZqaMnut1-71" value="+ tableId: int&#xa;+ capacity: int" style="text;strokeColor=none;fillColor=none;align=left;verticalAlign=top;spacingLeft=4;spacingRight=4;overflow=hidden;rotatable=0;points=[[0,0.5],[1,0.5]];portConstraint=eastwest;" vertex="1" parent="h9Yj2MIiB5W3ZqaMnut1-70">
          <mxGeometry y="26" width="160" height="44" as="geometry" />
        </mxCell>
        <mxCell id="h9Yj2MIiB5W3ZqaMnut1-72" value="" style="line;strokeWidth=1;fillColor=none;align=left;verticalAlign=middle;spacingTop=-1;spacingLeft=3;spacingRight=3;rotatable=0;labelPosition=right;points=[];portConstraint=eastwest;" vertex="1" parent="h9Yj2MIiB5W3ZqaMnut1-70">
          <mxGeometry y="70" width="160" height="8" as="geometry" />
        </mxCell>
        <mxCell id="h9Yj2MIiB5W3ZqaMnut1-73" value="+ method(type): type" style="text;strokeColor=none;fillColor=none;align=left;verticalAlign=top;spacingLeft=4;spacingRight=4;overflow=hidden;rotatable=0;points=[[0,0.5],[1,0.5]];portConstraint=eastwest;" vertex="1" parent="h9Yj2MIiB5W3ZqaMnut1-70">
          <mxGeometry y="78" width="160" height="26" as="geometry" />
        </mxCell>
        <mxCell id="h9Yj2MIiB5W3ZqaMnut1-74" value="Customer" style="swimlane;fontStyle=1;align=center;verticalAlign=top;childLayout=stackLayout;horizontal=1;startSize=26;horizontalStack=0;resizeParent=1;resizeParentMax=0;resizeLast=0;collapsible=1;marginBottom=0;" vertex="1" parent="1">
          <mxGeometry x="280" y="1970" width="160" height="104" as="geometry" />
        </mxCell>
        <mxCell id="h9Yj2MIiB5W3ZqaMnut1-75" value="+ customerId&#xa;+ minCapacity: " style="text;strokeColor=none;fillColor=none;align=left;verticalAlign=top;spacingLeft=4;spacingRight=4;overflow=hidden;rotatable=0;points=[[0,0.5],[1,0.5]];portConstraint=eastwest;" vertex="1" parent="h9Yj2MIiB5W3ZqaMnut1-74">
          <mxGeometry y="26" width="160" height="44" as="geometry" />
        </mxCell>
        <mxCell id="h9Yj2MIiB5W3ZqaMnut1-76" value="" style="line;strokeWidth=1;fillColor=none;align=left;verticalAlign=middle;spacingTop=-1;spacingLeft=3;spacingRight=3;rotatable=0;labelPosition=right;points=[];portConstraint=eastwest;" vertex="1" parent="h9Yj2MIiB5W3ZqaMnut1-74">
          <mxGeometry y="70" width="160" height="8" as="geometry" />
        </mxCell>
        <mxCell id="h9Yj2MIiB5W3ZqaMnut1-77" value="+ method(type): type" style="text;strokeColor=none;fillColor=none;align=left;verticalAlign=top;spacingLeft=4;spacingRight=4;overflow=hidden;rotatable=0;points=[[0,0.5],[1,0.5]];portConstraint=eastwest;" vertex="1" parent="h9Yj2MIiB5W3ZqaMnut1-74">
          <mxGeometry y="78" width="160" height="26" as="geometry" />
        </mxCell>
        <mxCell id="h9Yj2MIiB5W3ZqaMnut1-78" value="use case: 1. user provides the customers capacity requirements, and search for available tables;&lt;br&gt;2. If a table is not avalible, put the customer in a waitList&lt;br&gt;3. otherwise, assign the customer to this table." style="text;html=1;strokeColor=none;fillColor=none;align=center;verticalAlign=middle;whiteSpace=wrap;rounded=0;" vertex="1" parent="1">
          <mxGeometry x="160" y="1770" width="710" height="20" as="geometry" />
        </mxCell>
        <mxCell id="h9Yj2MIiB5W3ZqaMnut1-79" value="Restaurant" style="swimlane;fontStyle=1;align=center;verticalAlign=top;childLayout=stackLayout;horizontal=1;startSize=26;horizontalStack=0;resizeParent=1;resizeParentMax=0;resizeLast=0;collapsible=1;marginBottom=0;" vertex="1" parent="1">
          <mxGeometry x="450" y="1830" width="260" height="134" as="geometry" />
        </mxCell>
        <mxCell id="h9Yj2MIiB5W3ZqaMnut1-80" value="+ availableTables: Set&lt;Table&gt;[]&#xa;+ occupiedTables: Set&lt;Table&gt;&#xa;+ waitList: Queue&lt;Customer&gt;[]&#xa;+ pollPolicy: WaitListPollPolicy" style="text;strokeColor=none;fillColor=none;align=left;verticalAlign=top;spacingLeft=4;spacingRight=4;overflow=hidden;rotatable=0;points=[[0,0.5],[1,0.5]];portConstraint=eastwest;" vertex="1" parent="h9Yj2MIiB5W3ZqaMnut1-79">
          <mxGeometry y="26" width="260" height="74" as="geometry" />
        </mxCell>
        <mxCell id="h9Yj2MIiB5W3ZqaMnut1-81" value="" style="line;strokeWidth=1;fillColor=none;align=left;verticalAlign=middle;spacingTop=-1;spacingLeft=3;spacingRight=3;rotatable=0;labelPosition=right;points=[];portConstraint=eastwest;" vertex="1" parent="h9Yj2MIiB5W3ZqaMnut1-79">
          <mxGeometry y="100" width="260" height="8" as="geometry" />
        </mxCell>
        <mxCell id="h9Yj2MIiB5W3ZqaMnut1-82" value="+ method(type): type" style="text;strokeColor=none;fillColor=none;align=left;verticalAlign=top;spacingLeft=4;spacingRight=4;overflow=hidden;rotatable=0;points=[[0,0.5],[1,0.5]];portConstraint=eastwest;" vertex="1" parent="h9Yj2MIiB5W3ZqaMnut1-79">
          <mxGeometry y="108" width="260" height="26" as="geometry" />
        </mxCell>
        <mxCell id="h9Yj2MIiB5W3ZqaMnut1-84" value="&lt;h1&gt;Function Requirement&lt;/h1&gt;&lt;p&gt;1. User is able to search for available tables based on customer&#39;s min counts&lt;/p&gt;&lt;p&gt;2. User is able to assign a table to customer&lt;/p&gt;&lt;p&gt;3. User is able to put a customer to waitList;&lt;/p&gt;&lt;p&gt;4.&amp;nbsp; When a table is cleared, it should be available, and a customer in waitList is able to occupy it based on different policy.&amp;nbsp;&lt;/p&gt;" style="text;html=1;strokeColor=none;fillColor=none;spacing=5;spacingTop=-20;whiteSpace=wrap;overflow=hidden;rounded=0;" vertex="1" parent="1">
          <mxGeometry x="50" y="2160" width="700" height="170" as="geometry" />
        </mxCell>
        <mxCell id="h9Yj2MIiB5W3ZqaMnut1-85" value="«interface»&lt;br&gt;&lt;b&gt;WaitListPollPolicy&lt;/b&gt;" style="html=1;" vertex="1" parent="1">
          <mxGeometry x="850" y="1950" width="110" height="50" as="geometry" />
        </mxCell>
        <mxCell id="h9Yj2MIiB5W3ZqaMnut1-86" value="&lt;h1&gt;API&lt;/h1&gt;&lt;p&gt;searchTable(int minCapacity): a&amp;nbsp; table capacity to a list of available tables, search from minCapacity to maxCapacity, until a table is found. If no table is find, return null.&lt;/p&gt;&lt;p&gt;assignTable(Table table, Customer, customer): put the table to occupiedTables, and remove it from availableTable&lt;/p&gt;&lt;p&gt;&lt;span&gt;addToWaitList(Customer customer): put the customer into waitList. waitList is a array of queues with seat requirement as index&lt;/span&gt;&lt;br&gt;&lt;/p&gt;&lt;p&gt;clearTable(Table table): remove table from occupiedTables, and put it back to availableTable. Based on the PollPolicy, assign the table to a customer in waitList.&amp;nbsp;&lt;/p&gt;&lt;p&gt;FirstInFirstOut policy: pick the first customer in waitList that has a seat requirement less than or equal to the current table capacity&lt;/p&gt;&lt;p&gt;MaximuizeOccupation: pick the first customer in waitList that has a seat requirement closest to the current table capacity&lt;/p&gt;&lt;div&gt;&lt;br&gt;&lt;/div&gt;" style="text;html=1;strokeColor=none;fillColor=none;spacing=5;spacingTop=-20;whiteSpace=wrap;overflow=hidden;rounded=0;" vertex="1" parent="1">
          <mxGeometry x="50" y="2350" width="990" height="210" as="geometry" />
        </mxCell>
        <mxCell id="h9Yj2MIiB5W3ZqaMnut1-87" value="FirstInFirstOut" style="swimlane;fontStyle=1;align=center;verticalAlign=top;childLayout=stackLayout;horizontal=1;startSize=26;horizontalStack=0;resizeParent=1;resizeParentMax=0;resizeLast=0;collapsible=1;marginBottom=0;" vertex="1" parent="1">
          <mxGeometry x="655" y="2050" width="230" height="60" as="geometry" />
        </mxCell>
        <mxCell id="h9Yj2MIiB5W3ZqaMnut1-89" value="" style="line;strokeWidth=1;fillColor=none;align=left;verticalAlign=middle;spacingTop=-1;spacingLeft=3;spacingRight=3;rotatable=0;labelPosition=right;points=[];portConstraint=eastwest;" vertex="1" parent="h9Yj2MIiB5W3ZqaMnut1-87">
          <mxGeometry y="26" width="230" height="8" as="geometry" />
        </mxCell>
        <mxCell id="h9Yj2MIiB5W3ZqaMnut1-90" value="+ pollFirst(waitList, table): Customer" style="text;strokeColor=none;fillColor=none;align=left;verticalAlign=top;spacingLeft=4;spacingRight=4;overflow=hidden;rotatable=0;points=[[0,0.5],[1,0.5]];portConstraint=eastwest;" vertex="1" parent="h9Yj2MIiB5W3ZqaMnut1-87">
          <mxGeometry y="34" width="230" height="26" as="geometry" />
        </mxCell>
        <mxCell id="h9Yj2MIiB5W3ZqaMnut1-91" value="" style="endArrow=block;dashed=1;endFill=0;endSize=12;html=1;entryX=0.5;entryY=1;entryDx=0;entryDy=0;exitX=0.5;exitY=0;exitDx=0;exitDy=0;" edge="1" parent="1" source="h9Yj2MIiB5W3ZqaMnut1-87" target="h9Yj2MIiB5W3ZqaMnut1-85">
          <mxGeometry width="160" relative="1" as="geometry">
            <mxPoint x="470" y="2320" as="sourcePoint" />
            <mxPoint x="630" y="2320" as="targetPoint" />
          </mxGeometry>
        </mxCell>
        <mxCell id="h9Yj2MIiB5W3ZqaMnut1-93" value="MaximizeOccupation" style="swimlane;fontStyle=1;align=center;verticalAlign=top;childLayout=stackLayout;horizontal=1;startSize=26;horizontalStack=0;resizeParent=1;resizeParentMax=0;resizeLast=0;collapsible=1;marginBottom=0;" vertex="1" parent="1">
          <mxGeometry x="900" y="2050" width="230" height="60" as="geometry" />
        </mxCell>
        <mxCell id="h9Yj2MIiB5W3ZqaMnut1-94" value="" style="line;strokeWidth=1;fillColor=none;align=left;verticalAlign=middle;spacingTop=-1;spacingLeft=3;spacingRight=3;rotatable=0;labelPosition=right;points=[];portConstraint=eastwest;" vertex="1" parent="h9Yj2MIiB5W3ZqaMnut1-93">
          <mxGeometry y="26" width="230" height="8" as="geometry" />
        </mxCell>
        <mxCell id="h9Yj2MIiB5W3ZqaMnut1-95" value="+ pollFirst(waitList, table): Customer" style="text;strokeColor=none;fillColor=none;align=left;verticalAlign=top;spacingLeft=4;spacingRight=4;overflow=hidden;rotatable=0;points=[[0,0.5],[1,0.5]];portConstraint=eastwest;" vertex="1" parent="h9Yj2MIiB5W3ZqaMnut1-93">
          <mxGeometry y="34" width="230" height="26" as="geometry" />
        </mxCell>
        <mxCell id="h9Yj2MIiB5W3ZqaMnut1-96" value="" style="endArrow=block;dashed=1;endFill=0;endSize=12;html=1;entryX=0.5;entryY=1;entryDx=0;entryDy=0;exitX=0.5;exitY=0;exitDx=0;exitDy=0;" edge="1" parent="1" source="h9Yj2MIiB5W3ZqaMnut1-93" target="h9Yj2MIiB5W3ZqaMnut1-85">
          <mxGeometry width="160" relative="1" as="geometry">
            <mxPoint x="470" y="2110" as="sourcePoint" />
            <mxPoint x="630" y="2110" as="targetPoint" />
          </mxGeometry>
        </mxCell>
        <mxCell id="h9Yj2MIiB5W3ZqaMnut1-97" value="&lt;h1&gt;Use Case&lt;/h1&gt;&lt;p&gt;1. User get a ticket when entering in parking garage&lt;/p&gt;&lt;p&gt;2. User make payment when exit parking garage&lt;/p&gt;&lt;p&gt;3. User pick a parking lot and reserve it online.&lt;/p&gt;&lt;p&gt;&lt;br&gt;&lt;/p&gt;" style="text;html=1;strokeColor=none;fillColor=none;spacing=5;spacingTop=-20;whiteSpace=wrap;overflow=hidden;rounded=0;" vertex="1" parent="1">
          <mxGeometry x="80" y="2660" width="950" height="130" as="geometry" />
        </mxCell>
        <mxCell id="h9Yj2MIiB5W3ZqaMnut1-98" value="&lt;h1&gt;Function Requirement&lt;/h1&gt;&lt;p&gt;1. User is able to search for available parking lot for a time slot&lt;/p&gt;&lt;p&gt;2. User is able to book a parking lot for a time slot;&lt;/p&gt;&lt;p&gt;3. User is&amp;nbsp;&lt;span&gt;&amp;nbsp;&lt;/span&gt;&lt;/p&gt;" style="text;html=1;strokeColor=none;fillColor=none;spacing=5;spacingTop=-20;whiteSpace=wrap;overflow=hidden;rounded=0;" vertex="1" parent="1">
          <mxGeometry x="81" y="2820" width="940" height="120" as="geometry" />
        </mxCell>
        <mxCell id="h9Yj2MIiB5W3ZqaMnut1-99" value="&lt;h1&gt;API&lt;/h1&gt;&lt;p&gt;&lt;span&gt;reserve(garageId, timeslot): reserveId, spotId&lt;/span&gt;&lt;br&gt;&lt;/p&gt;&lt;p&gt;&lt;span&gt;cancel(reserveId)&lt;/span&gt;&lt;/p&gt;&lt;p&gt;&lt;span&gt;makePayment(reserveId)&lt;/span&gt;&lt;/p&gt;&lt;p&gt;&lt;span&gt;searchLot(vehicleType)&lt;/span&gt;&lt;/p&gt;" style="text;html=1;strokeColor=none;fillColor=none;spacing=5;spacingTop=-20;whiteSpace=wrap;overflow=hidden;rounded=0;" vertex="1" parent="1">
          <mxGeometry x="80" y="2980" width="950" height="180" as="geometry" />
        </mxCell>
        <mxCell id="h9Yj2MIiB5W3ZqaMnut1-100" value="&lt;h1&gt;&lt;span&gt;Schema&lt;/span&gt;&lt;br&gt;&lt;/h1&gt;" style="text;html=1;strokeColor=none;fillColor=none;spacing=5;spacingTop=-20;whiteSpace=wrap;overflow=hidden;rounded=0;" vertex="1" parent="1">
          <mxGeometry x="80" y="3160" width="1000" height="40" as="geometry" />
        </mxCell>
        <mxCell id="h9Yj2MIiB5W3ZqaMnut1-111" value="ParkingSpot" style="shape=table;startSize=30;container=1;collapsible=1;childLayout=tableLayout;fixedRows=1;rowLines=0;fontStyle=1;align=center;resizeLast=1;" vertex="1" parent="1">
          <mxGeometry x="70" y="3210" width="180" height="180" as="geometry" />
        </mxCell>
        <mxCell id="h9Yj2MIiB5W3ZqaMnut1-112" value="" style="shape=partialRectangle;collapsible=0;dropTarget=0;pointerEvents=0;fillColor=none;top=0;left=0;bottom=1;right=0;points=[[0,0.5],[1,0.5]];portConstraint=eastwest;" vertex="1" parent="h9Yj2MIiB5W3ZqaMnut1-111">
          <mxGeometry y="30" width="180" height="30" as="geometry" />
        </mxCell>
        <mxCell id="h9Yj2MIiB5W3ZqaMnut1-113" value="PK" style="shape=partialRectangle;connectable=0;fillColor=none;top=0;left=0;bottom=0;right=0;fontStyle=1;overflow=hidden;" vertex="1" parent="h9Yj2MIiB5W3ZqaMnut1-112">
          <mxGeometry width="30" height="30" as="geometry" />
        </mxCell>
        <mxCell id="h9Yj2MIiB5W3ZqaMnut1-114" value="UniqueID" style="shape=partialRectangle;connectable=0;fillColor=none;top=0;left=0;bottom=0;right=0;align=left;spacingLeft=6;fontStyle=5;overflow=hidden;" vertex="1" parent="h9Yj2MIiB5W3ZqaMnut1-112">
          <mxGeometry x="30" width="150" height="30" as="geometry" />
        </mxCell>
        <mxCell id="h9Yj2MIiB5W3ZqaMnut1-115" value="" style="shape=partialRectangle;collapsible=0;dropTarget=0;pointerEvents=0;fillColor=none;top=0;left=0;bottom=0;right=0;points=[[0,0.5],[1,0.5]];portConstraint=eastwest;" vertex="1" parent="h9Yj2MIiB5W3ZqaMnut1-111">
          <mxGeometry y="60" width="180" height="30" as="geometry" />
        </mxCell>
        <mxCell id="h9Yj2MIiB5W3ZqaMnut1-116" value="" style="shape=partialRectangle;connectable=0;fillColor=none;top=0;left=0;bottom=0;right=0;editable=1;overflow=hidden;" vertex="1" parent="h9Yj2MIiB5W3ZqaMnut1-115">
          <mxGeometry width="30" height="30" as="geometry" />
        </mxCell>
        <mxCell id="h9Yj2MIiB5W3ZqaMnut1-117" value="spotType" style="shape=partialRectangle;connectable=0;fillColor=none;top=0;left=0;bottom=0;right=0;align=left;spacingLeft=6;overflow=hidden;" vertex="1" parent="h9Yj2MIiB5W3ZqaMnut1-115">
          <mxGeometry x="30" width="150" height="30" as="geometry" />
        </mxCell>
        <mxCell id="h9Yj2MIiB5W3ZqaMnut1-118" value="" style="shape=partialRectangle;collapsible=0;dropTarget=0;pointerEvents=0;fillColor=none;top=0;left=0;bottom=0;right=0;points=[[0,0.5],[1,0.5]];portConstraint=eastwest;" vertex="1" parent="h9Yj2MIiB5W3ZqaMnut1-111">
          <mxGeometry y="90" width="180" height="30" as="geometry" />
        </mxCell>
        <mxCell id="h9Yj2MIiB5W3ZqaMnut1-119" value="" style="shape=partialRectangle;connectable=0;fillColor=none;top=0;left=0;bottom=0;right=0;editable=1;overflow=hidden;" vertex="1" parent="h9Yj2MIiB5W3ZqaMnut1-118">
          <mxGeometry width="30" height="30" as="geometry" />
        </mxCell>
        <mxCell id="h9Yj2MIiB5W3ZqaMnut1-120" value="location" style="shape=partialRectangle;connectable=0;fillColor=none;top=0;left=0;bottom=0;right=0;align=left;spacingLeft=6;overflow=hidden;" vertex="1" parent="h9Yj2MIiB5W3ZqaMnut1-118">
          <mxGeometry x="30" width="150" height="30" as="geometry" />
        </mxCell>
        <mxCell id="h9Yj2MIiB5W3ZqaMnut1-121" value="" style="shape=partialRectangle;collapsible=0;dropTarget=0;pointerEvents=0;fillColor=none;top=0;left=0;bottom=0;right=0;points=[[0,0.5],[1,0.5]];portConstraint=eastwest;" vertex="1" parent="h9Yj2MIiB5W3ZqaMnut1-111">
          <mxGeometry y="120" width="180" height="30" as="geometry" />
        </mxCell>
        <mxCell id="h9Yj2MIiB5W3ZqaMnut1-122" value="" style="shape=partialRectangle;connectable=0;fillColor=none;top=0;left=0;bottom=0;right=0;editable=1;overflow=hidden;" vertex="1" parent="h9Yj2MIiB5W3ZqaMnut1-121">
          <mxGeometry width="30" height="30" as="geometry" />
        </mxCell>
        <mxCell id="h9Yj2MIiB5W3ZqaMnut1-123" value="garage_id" style="shape=partialRectangle;connectable=0;fillColor=none;top=0;left=0;bottom=0;right=0;align=left;spacingLeft=6;overflow=hidden;" vertex="1" parent="h9Yj2MIiB5W3ZqaMnut1-121">
          <mxGeometry x="30" width="150" height="30" as="geometry" />
        </mxCell>
        <mxCell id="h9Yj2MIiB5W3ZqaMnut1-151" value="" style="shape=partialRectangle;collapsible=0;dropTarget=0;pointerEvents=0;fillColor=none;top=0;left=0;bottom=0;right=0;points=[[0,0.5],[1,0.5]];portConstraint=eastwest;" vertex="1" parent="h9Yj2MIiB5W3ZqaMnut1-111">
          <mxGeometry y="150" width="180" height="30" as="geometry" />
        </mxCell>
        <mxCell id="h9Yj2MIiB5W3ZqaMnut1-152" value="" style="shape=partialRectangle;connectable=0;fillColor=none;top=0;left=0;bottom=0;right=0;editable=1;overflow=hidden;" vertex="1" parent="h9Yj2MIiB5W3ZqaMnut1-151">
          <mxGeometry width="30" height="30" as="geometry" />
        </mxCell>
        <mxCell id="h9Yj2MIiB5W3ZqaMnut1-153" value="price" style="shape=partialRectangle;connectable=0;fillColor=none;top=0;left=0;bottom=0;right=0;align=left;spacingLeft=6;overflow=hidden;" vertex="1" parent="h9Yj2MIiB5W3ZqaMnut1-151">
          <mxGeometry x="30" width="150" height="30" as="geometry" />
        </mxCell>
        <mxCell id="h9Yj2MIiB5W3ZqaMnut1-124" value="Garage" style="shape=table;startSize=30;container=1;collapsible=1;childLayout=tableLayout;fixedRows=1;rowLines=0;fontStyle=1;align=center;resizeLast=1;" vertex="1" parent="1">
          <mxGeometry x="330" y="3210" width="180" height="160" as="geometry" />
        </mxCell>
        <mxCell id="h9Yj2MIiB5W3ZqaMnut1-125" value="" style="shape=partialRectangle;collapsible=0;dropTarget=0;pointerEvents=0;fillColor=none;top=0;left=0;bottom=1;right=0;points=[[0,0.5],[1,0.5]];portConstraint=eastwest;" vertex="1" parent="h9Yj2MIiB5W3ZqaMnut1-124">
          <mxGeometry y="30" width="180" height="30" as="geometry" />
        </mxCell>
        <mxCell id="h9Yj2MIiB5W3ZqaMnut1-126" value="PK" style="shape=partialRectangle;connectable=0;fillColor=none;top=0;left=0;bottom=0;right=0;fontStyle=1;overflow=hidden;" vertex="1" parent="h9Yj2MIiB5W3ZqaMnut1-125">
          <mxGeometry width="30" height="30" as="geometry" />
        </mxCell>
        <mxCell id="h9Yj2MIiB5W3ZqaMnut1-127" value="UniqueID" style="shape=partialRectangle;connectable=0;fillColor=none;top=0;left=0;bottom=0;right=0;align=left;spacingLeft=6;fontStyle=5;overflow=hidden;" vertex="1" parent="h9Yj2MIiB5W3ZqaMnut1-125">
          <mxGeometry x="30" width="150" height="30" as="geometry" />
        </mxCell>
        <mxCell id="h9Yj2MIiB5W3ZqaMnut1-128" value="" style="shape=partialRectangle;collapsible=0;dropTarget=0;pointerEvents=0;fillColor=none;top=0;left=0;bottom=0;right=0;points=[[0,0.5],[1,0.5]];portConstraint=eastwest;" vertex="1" parent="h9Yj2MIiB5W3ZqaMnut1-124">
          <mxGeometry y="60" width="180" height="30" as="geometry" />
        </mxCell>
        <mxCell id="h9Yj2MIiB5W3ZqaMnut1-129" value="" style="shape=partialRectangle;connectable=0;fillColor=none;top=0;left=0;bottom=0;right=0;editable=1;overflow=hidden;" vertex="1" parent="h9Yj2MIiB5W3ZqaMnut1-128">
          <mxGeometry width="30" height="30" as="geometry" />
        </mxCell>
        <mxCell id="h9Yj2MIiB5W3ZqaMnut1-130" value="Address" style="shape=partialRectangle;connectable=0;fillColor=none;top=0;left=0;bottom=0;right=0;align=left;spacingLeft=6;overflow=hidden;" vertex="1" parent="h9Yj2MIiB5W3ZqaMnut1-128">
          <mxGeometry x="30" width="150" height="30" as="geometry" />
        </mxCell>
        <mxCell id="h9Yj2MIiB5W3ZqaMnut1-131" value="" style="shape=partialRectangle;collapsible=0;dropTarget=0;pointerEvents=0;fillColor=none;top=0;left=0;bottom=0;right=0;points=[[0,0.5],[1,0.5]];portConstraint=eastwest;" vertex="1" parent="h9Yj2MIiB5W3ZqaMnut1-124">
          <mxGeometry y="90" width="180" height="30" as="geometry" />
        </mxCell>
        <mxCell id="h9Yj2MIiB5W3ZqaMnut1-132" value="" style="shape=partialRectangle;connectable=0;fillColor=none;top=0;left=0;bottom=0;right=0;editable=1;overflow=hidden;" vertex="1" parent="h9Yj2MIiB5W3ZqaMnut1-131">
          <mxGeometry width="30" height="30" as="geometry" />
        </mxCell>
        <mxCell id="h9Yj2MIiB5W3ZqaMnut1-133" value="Capacity" style="shape=partialRectangle;connectable=0;fillColor=none;top=0;left=0;bottom=0;right=0;align=left;spacingLeft=6;overflow=hidden;" vertex="1" parent="h9Yj2MIiB5W3ZqaMnut1-131">
          <mxGeometry x="30" width="150" height="30" as="geometry" />
        </mxCell>
        <mxCell id="h9Yj2MIiB5W3ZqaMnut1-134" value="" style="shape=partialRectangle;collapsible=0;dropTarget=0;pointerEvents=0;fillColor=none;top=0;left=0;bottom=0;right=0;points=[[0,0.5],[1,0.5]];portConstraint=eastwest;" vertex="1" parent="h9Yj2MIiB5W3ZqaMnut1-124">
          <mxGeometry y="120" width="180" height="30" as="geometry" />
        </mxCell>
        <mxCell id="h9Yj2MIiB5W3ZqaMnut1-135" value="" style="shape=partialRectangle;connectable=0;fillColor=none;top=0;left=0;bottom=0;right=0;editable=1;overflow=hidden;" vertex="1" parent="h9Yj2MIiB5W3ZqaMnut1-134">
          <mxGeometry width="30" height="30" as="geometry" />
        </mxCell>
        <mxCell id="h9Yj2MIiB5W3ZqaMnut1-136" value="Row 3" style="shape=partialRectangle;connectable=0;fillColor=none;top=0;left=0;bottom=0;right=0;align=left;spacingLeft=6;overflow=hidden;" vertex="1" parent="h9Yj2MIiB5W3ZqaMnut1-134">
          <mxGeometry x="30" width="150" height="30" as="geometry" />
        </mxCell>
        <mxCell id="h9Yj2MIiB5W3ZqaMnut1-137" value="Customer" style="shape=table;startSize=30;container=1;collapsible=1;childLayout=tableLayout;fixedRows=1;rowLines=0;fontStyle=1;align=center;resizeLast=1;" vertex="1" parent="1">
          <mxGeometry x="570" y="3210" width="180" height="160" as="geometry" />
        </mxCell>
        <mxCell id="h9Yj2MIiB5W3ZqaMnut1-138" value="" style="shape=partialRectangle;collapsible=0;dropTarget=0;pointerEvents=0;fillColor=none;top=0;left=0;bottom=1;right=0;points=[[0,0.5],[1,0.5]];portConstraint=eastwest;" vertex="1" parent="h9Yj2MIiB5W3ZqaMnut1-137">
          <mxGeometry y="30" width="180" height="30" as="geometry" />
        </mxCell>
        <mxCell id="h9Yj2MIiB5W3ZqaMnut1-139" value="PK" style="shape=partialRectangle;connectable=0;fillColor=none;top=0;left=0;bottom=0;right=0;fontStyle=1;overflow=hidden;" vertex="1" parent="h9Yj2MIiB5W3ZqaMnut1-138">
          <mxGeometry width="30" height="30" as="geometry" />
        </mxCell>
        <mxCell id="h9Yj2MIiB5W3ZqaMnut1-140" value="UniqueID" style="shape=partialRectangle;connectable=0;fillColor=none;top=0;left=0;bottom=0;right=0;align=left;spacingLeft=6;fontStyle=5;overflow=hidden;" vertex="1" parent="h9Yj2MIiB5W3ZqaMnut1-138">
          <mxGeometry x="30" width="150" height="30" as="geometry" />
        </mxCell>
        <mxCell id="h9Yj2MIiB5W3ZqaMnut1-141" value="" style="shape=partialRectangle;collapsible=0;dropTarget=0;pointerEvents=0;fillColor=none;top=0;left=0;bottom=0;right=0;points=[[0,0.5],[1,0.5]];portConstraint=eastwest;" vertex="1" parent="h9Yj2MIiB5W3ZqaMnut1-137">
          <mxGeometry y="60" width="180" height="30" as="geometry" />
        </mxCell>
        <mxCell id="h9Yj2MIiB5W3ZqaMnut1-142" value="" style="shape=partialRectangle;connectable=0;fillColor=none;top=0;left=0;bottom=0;right=0;editable=1;overflow=hidden;" vertex="1" parent="h9Yj2MIiB5W3ZqaMnut1-141">
          <mxGeometry width="30" height="30" as="geometry" />
        </mxCell>
        <mxCell id="h9Yj2MIiB5W3ZqaMnut1-143" value="Row 1" style="shape=partialRectangle;connectable=0;fillColor=none;top=0;left=0;bottom=0;right=0;align=left;spacingLeft=6;overflow=hidden;" vertex="1" parent="h9Yj2MIiB5W3ZqaMnut1-141">
          <mxGeometry x="30" width="150" height="30" as="geometry" />
        </mxCell>
        <mxCell id="h9Yj2MIiB5W3ZqaMnut1-144" value="" style="shape=partialRectangle;collapsible=0;dropTarget=0;pointerEvents=0;fillColor=none;top=0;left=0;bottom=0;right=0;points=[[0,0.5],[1,0.5]];portConstraint=eastwest;" vertex="1" parent="h9Yj2MIiB5W3ZqaMnut1-137">
          <mxGeometry y="90" width="180" height="30" as="geometry" />
        </mxCell>
        <mxCell id="h9Yj2MIiB5W3ZqaMnut1-145" value="" style="shape=partialRectangle;connectable=0;fillColor=none;top=0;left=0;bottom=0;right=0;editable=1;overflow=hidden;" vertex="1" parent="h9Yj2MIiB5W3ZqaMnut1-144">
          <mxGeometry width="30" height="30" as="geometry" />
        </mxCell>
        <mxCell id="h9Yj2MIiB5W3ZqaMnut1-146" value="Row 2" style="shape=partialRectangle;connectable=0;fillColor=none;top=0;left=0;bottom=0;right=0;align=left;spacingLeft=6;overflow=hidden;" vertex="1" parent="h9Yj2MIiB5W3ZqaMnut1-144">
          <mxGeometry x="30" width="150" height="30" as="geometry" />
        </mxCell>
        <mxCell id="h9Yj2MIiB5W3ZqaMnut1-147" value="" style="shape=partialRectangle;collapsible=0;dropTarget=0;pointerEvents=0;fillColor=none;top=0;left=0;bottom=0;right=0;points=[[0,0.5],[1,0.5]];portConstraint=eastwest;" vertex="1" parent="h9Yj2MIiB5W3ZqaMnut1-137">
          <mxGeometry y="120" width="180" height="30" as="geometry" />
        </mxCell>
        <mxCell id="h9Yj2MIiB5W3ZqaMnut1-148" value="" style="shape=partialRectangle;connectable=0;fillColor=none;top=0;left=0;bottom=0;right=0;editable=1;overflow=hidden;" vertex="1" parent="h9Yj2MIiB5W3ZqaMnut1-147">
          <mxGeometry width="30" height="30" as="geometry" />
        </mxCell>
        <mxCell id="h9Yj2MIiB5W3ZqaMnut1-149" value="Row 3" style="shape=partialRectangle;connectable=0;fillColor=none;top=0;left=0;bottom=0;right=0;align=left;spacingLeft=6;overflow=hidden;" vertex="1" parent="h9Yj2MIiB5W3ZqaMnut1-147">
          <mxGeometry x="30" width="150" height="30" as="geometry" />
        </mxCell>
        <mxCell id="h9Yj2MIiB5W3ZqaMnut1-154" value="Reservation" style="shape=table;startSize=30;container=1;collapsible=1;childLayout=tableLayout;fixedRows=1;rowLines=0;fontStyle=1;align=center;resizeLast=1;" vertex="1" parent="1">
          <mxGeometry x="815" y="3210" width="180" height="190" as="geometry" />
        </mxCell>
        <mxCell id="h9Yj2MIiB5W3ZqaMnut1-155" value="" style="shape=partialRectangle;collapsible=0;dropTarget=0;pointerEvents=0;fillColor=none;top=0;left=0;bottom=1;right=0;points=[[0,0.5],[1,0.5]];portConstraint=eastwest;" vertex="1" parent="h9Yj2MIiB5W3ZqaMnut1-154">
          <mxGeometry y="30" width="180" height="30" as="geometry" />
        </mxCell>
        <mxCell id="h9Yj2MIiB5W3ZqaMnut1-156" value="PK" style="shape=partialRectangle;connectable=0;fillColor=none;top=0;left=0;bottom=0;right=0;fontStyle=1;overflow=hidden;" vertex="1" parent="h9Yj2MIiB5W3ZqaMnut1-155">
          <mxGeometry width="30" height="30" as="geometry" />
        </mxCell>
        <mxCell id="h9Yj2MIiB5W3ZqaMnut1-157" value="UniqueID" style="shape=partialRectangle;connectable=0;fillColor=none;top=0;left=0;bottom=0;right=0;align=left;spacingLeft=6;fontStyle=5;overflow=hidden;" vertex="1" parent="h9Yj2MIiB5W3ZqaMnut1-155">
          <mxGeometry x="30" width="150" height="30" as="geometry" />
        </mxCell>
        <mxCell id="h9Yj2MIiB5W3ZqaMnut1-158" value="" style="shape=partialRectangle;collapsible=0;dropTarget=0;pointerEvents=0;fillColor=none;top=0;left=0;bottom=0;right=0;points=[[0,0.5],[1,0.5]];portConstraint=eastwest;" vertex="1" parent="h9Yj2MIiB5W3ZqaMnut1-154">
          <mxGeometry y="60" width="180" height="30" as="geometry" />
        </mxCell>
        <mxCell id="h9Yj2MIiB5W3ZqaMnut1-159" value="" style="shape=partialRectangle;connectable=0;fillColor=none;top=0;left=0;bottom=0;right=0;editable=1;overflow=hidden;" vertex="1" parent="h9Yj2MIiB5W3ZqaMnut1-158">
          <mxGeometry width="30" height="30" as="geometry" />
        </mxCell>
        <mxCell id="h9Yj2MIiB5W3ZqaMnut1-160" value="customerId" style="shape=partialRectangle;connectable=0;fillColor=none;top=0;left=0;bottom=0;right=0;align=left;spacingLeft=6;overflow=hidden;" vertex="1" parent="h9Yj2MIiB5W3ZqaMnut1-158">
          <mxGeometry x="30" width="150" height="30" as="geometry" />
        </mxCell>
        <mxCell id="h9Yj2MIiB5W3ZqaMnut1-161" value="" style="shape=partialRectangle;collapsible=0;dropTarget=0;pointerEvents=0;fillColor=none;top=0;left=0;bottom=0;right=0;points=[[0,0.5],[1,0.5]];portConstraint=eastwest;" vertex="1" parent="h9Yj2MIiB5W3ZqaMnut1-154">
          <mxGeometry y="90" width="180" height="30" as="geometry" />
        </mxCell>
        <mxCell id="h9Yj2MIiB5W3ZqaMnut1-162" value="" style="shape=partialRectangle;connectable=0;fillColor=none;top=0;left=0;bottom=0;right=0;editable=1;overflow=hidden;" vertex="1" parent="h9Yj2MIiB5W3ZqaMnut1-161">
          <mxGeometry width="30" height="30" as="geometry" />
        </mxCell>
        <mxCell id="h9Yj2MIiB5W3ZqaMnut1-163" value="spotId" style="shape=partialRectangle;connectable=0;fillColor=none;top=0;left=0;bottom=0;right=0;align=left;spacingLeft=6;overflow=hidden;" vertex="1" parent="h9Yj2MIiB5W3ZqaMnut1-161">
          <mxGeometry x="30" width="150" height="30" as="geometry" />
        </mxCell>
        <mxCell id="h9Yj2MIiB5W3ZqaMnut1-164" value="" style="shape=partialRectangle;collapsible=0;dropTarget=0;pointerEvents=0;fillColor=none;top=0;left=0;bottom=0;right=0;points=[[0,0.5],[1,0.5]];portConstraint=eastwest;" vertex="1" parent="h9Yj2MIiB5W3ZqaMnut1-154">
          <mxGeometry y="120" width="180" height="30" as="geometry" />
        </mxCell>
        <mxCell id="h9Yj2MIiB5W3ZqaMnut1-165" value="" style="shape=partialRectangle;connectable=0;fillColor=none;top=0;left=0;bottom=0;right=0;editable=1;overflow=hidden;" vertex="1" parent="h9Yj2MIiB5W3ZqaMnut1-164">
          <mxGeometry width="30" height="30" as="geometry" />
        </mxCell>
        <mxCell id="h9Yj2MIiB5W3ZqaMnut1-166" value="start_time" style="shape=partialRectangle;connectable=0;fillColor=none;top=0;left=0;bottom=0;right=0;align=left;spacingLeft=6;overflow=hidden;" vertex="1" parent="h9Yj2MIiB5W3ZqaMnut1-164">
          <mxGeometry x="30" width="150" height="30" as="geometry" />
        </mxCell>
        <mxCell id="h9Yj2MIiB5W3ZqaMnut1-167" value="" style="shape=partialRectangle;collapsible=0;dropTarget=0;pointerEvents=0;fillColor=none;top=0;left=0;bottom=0;right=0;points=[[0,0.5],[1,0.5]];portConstraint=eastwest;" vertex="1" parent="h9Yj2MIiB5W3ZqaMnut1-154">
          <mxGeometry y="150" width="180" height="30" as="geometry" />
        </mxCell>
        <mxCell id="h9Yj2MIiB5W3ZqaMnut1-168" value="" style="shape=partialRectangle;connectable=0;fillColor=none;top=0;left=0;bottom=0;right=0;editable=1;overflow=hidden;" vertex="1" parent="h9Yj2MIiB5W3ZqaMnut1-167">
          <mxGeometry width="30" height="30" as="geometry" />
        </mxCell>
        <mxCell id="h9Yj2MIiB5W3ZqaMnut1-169" value="end_time" style="shape=partialRectangle;connectable=0;fillColor=none;top=0;left=0;bottom=0;right=0;align=left;spacingLeft=6;overflow=hidden;" vertex="1" parent="h9Yj2MIiB5W3ZqaMnut1-167">
          <mxGeometry x="30" width="150" height="30" as="geometry" />
        </mxCell>
      </root>
    </mxGraphModel>
  </diagram>
</mxfile>
